<svg width="1200" height="630" viewBox="0 0 1200 630" xmlns="http://www.w3.org/2000/svg">
  <defs>
    <linearGradient id="bg1" x1="0%" y1="0%" x2="100%" y2="100%">
      <stop offset="0%" style="stop-color:#0c1222;stop-opacity:1" />
      <stop offset="50%" style="stop-color:#1a2332;stop-opacity:1" />
      <stop offset="100%" style="stop-color:#0f172a;stop-opacity:1" />
    </linearGradient>
    <linearGradient id="accent1" x1="0%" y1="0%" x2="100%" y2="0%">
      <stop offset="0%" style="stop-color:#3b82f6;stop-opacity:1" />
      <stop offset="100%" style="stop-color:#8b5cf6;stop-opacity:1" />
    </linearGradient>
  </defs>
  <rect width="1200" height="630" fill="url(#bg1)"/>
  <!-- Browser mockup -->
  <rect x="200" y="120" width="480" height="340" rx="12" fill="#1e293b" stroke="#334155" stroke-width="2"/>
  <rect x="200" y="120" width="480" height="40" rx="12" fill="#334155"/>
  <rect x="200" y="148" width="480" height="12" fill="#334155"/>
  <circle cx="228" cy="140" r="6" fill="#ef4444" opacity="0.8"/>
  <circle cx="250" cy="140" r="6" fill="#f59e0b" opacity="0.8"/>
  <circle cx="272" cy="140" r="6" fill="#22c55e" opacity="0.8"/>
  <rect x="300" y="133" width="280" height="14" rx="7" fill="#0f172a"/>
  <!-- Website content lines -->
  <rect x="220" y="180" width="440" height="60" rx="6" fill="#0f172a" opacity="0.6"/>
  <rect x="240" y="196" width="200" height="12" rx="4" fill="#3b82f6" opacity="0.7"/>
  <rect x="240" y="214" width="300" height="8" rx="4" fill="#64748b" opacity="0.6"/>
  <rect x="220" y="258" width="130" height="90" rx="6" fill="#1e3a5f" opacity="0.6"/>
  <rect x="366" y="258" width="130" height="90" rx="6" fill="#1e3a5f" opacity="0.6"/>
  <rect x="512" y="258" width="130" height="90" rx="6" fill="#1e3a5f" opacity="0.6"/>
  <rect x="240" y="370" width="160" height="10" rx="4" fill="#64748b" opacity="0.4"/>
  <rect x="240" y="386" width="120" height="8" rx="4" fill="#64748b" opacity="0.3"/>
  <!-- Decorative elements -->
  <circle cx="800" cy="250" r="120" fill="none" stroke="#3b82f6" stroke-width="1" opacity="0.15"/>
  <circle cx="800" cy="250" r="80" fill="none" stroke="#8b5cf6" stroke-width="1" opacity="0.2"/>
  <!-- Code lines -->
  <rect x="720" y="190" width="160" height="8" rx="4" fill="#3b82f6" opacity="0.5"/>
  <rect x="720" y="208" width="120" height="8" rx="4" fill="#8b5cf6" opacity="0.4"/>
  <rect x="740" y="226" width="100" height="8" rx="4" fill="#22c55e" opacity="0.4"/>
  <rect x="740" y="244" width="140" height="8" rx="4" fill="#f59e0b" opacity="0.3"/>
  <rect x="720" y="262" width="90" height="8" rx="4" fill="#3b82f6" opacity="0.4"/>
  <rect x="720" y="280" width="150" height="8" rx="4" fill="#64748b" opacity="0.4"/>
  <rect x="740" y="298" width="110" height="8" rx="4" fill="#22c55e" opacity="0.3"/>
  <!-- Title text area -->
  <rect x="200" y="490" width="380" height="20" rx="4" fill="#3b82f6" opacity="0.3"/>
  <rect x="200" y="518" width="280" height="14" rx="4" fill="#64748b" opacity="0.2"/>
  <!-- Glow -->
  <ellipse cx="600" cy="315" rx="350" ry="200" fill="#3b82f6" opacity="0.03"/>
</svg>
