<svg width="1200" height="630" viewBox="0 0 1200 630" xmlns="http://www.w3.org/2000/svg">
  <defs>
    <linearGradient id="bg1" x1="0%" y1="0%" x2="100%" y2="100%">
      <stop offset="0%" style="stop-color:#0c1222;stop-opacity:1" />
      <stop offset="50%" style="stop-color:#1a2332;stop-opacity:1" />
      <stop offset="100%" style="stop-color:#0f172a;stop-opacity:1" />
    </linearGradient>
  </defs>
  <rect width="1200" height="630" fill="url(#bg1)"/>
  <!-- Search bar mockup -->
  <rect x="220" y="110" width="560" height="54" rx="27" fill="#1e293b" stroke="#334155" stroke-width="2"/>
  <circle cx="260" cy="137" r="14" fill="none" stroke="#3b82f6" stroke-width="2.5" opacity="0.7"/>
  <line x1="270" y1="147" x2="282" y2="159" stroke="#3b82f6" stroke-width="2.5" stroke-linecap="round" opacity="0.7"/>
  <rect x="290" y="128" width="280" height="18" rx="6" fill="#0f172a" opacity="0.6"/>
  <!-- Search results -->
  <rect x="220" y="184" width="560" height="72" rx="8" fill="#1e293b" opacity="0.7" stroke="#334155" stroke-width="1"/>
  <rect x="238" y="200" width="220" height="12" rx="4" fill="#3b82f6" opacity="0.6"/>
  <rect x="238" y="220" width="380" height="8" rx="4" fill="#64748b" opacity="0.4"/>
  <rect x="238" y="235" width="300" height="8" rx="4" fill="#64748b" opacity="0.3"/>
  <rect x="220" y="268" width="560" height="72" rx="8" fill="#1e293b" opacity="0.5" stroke="#334155" stroke-width="1"/>
  <rect x="238" y="284" width="180" height="12" rx="4" fill="#3b82f6" opacity="0.4"/>
  <rect x="238" y="304" width="360" height="8" rx="4" fill="#64748b" opacity="0.3"/>
  <rect x="238" y="319" width="260" height="8" rx="4" fill="#64748b" opacity="0.25"/>
  <!-- Bar chart (ranking improvement) -->
  <rect x="860" y="420" width="40" height="80" rx="4" fill="#3b82f6" opacity="0.3"/>
  <rect x="910" y="360" width="40" height="140" rx="4" fill="#3b82f6" opacity="0.45"/>
  <rect x="960" y="300" width="40" height="200" rx="4" fill="#3b82f6" opacity="0.6"/>
  <rect x="1010" y="240" width="40" height="260" rx="4" fill="#3b82f6" opacity="0.75"/>
  <line x1="850" y1="500" x2="1060" y2="500" stroke="#334155" stroke-width="1.5"/>
  <!-- Trend arrow -->
  <polyline points="870,430 920,375 970,315 1030,255" fill="none" stroke="#22c55e" stroke-width="2.5" stroke-linecap="round" stroke-linejoin="round" opacity="0.7"/>
  <polygon points="1030,255 1020,270 1040,268" fill="#22c55e" opacity="0.7"/>
  <!-- Keywords tags -->
  <rect x="220" y="362" width="110" height="28" rx="14" fill="#1e3a5f" stroke="#3b82f6" stroke-width="1" opacity="0.8"/>
  <rect x="238" y="370" width="74" height="12" rx="4" fill="#3b82f6" opacity="0.6"/>
  <rect x="342" y="362" width="90" height="28" rx="14" fill="#2d1b4e" stroke="#8b5cf6" stroke-width="1" opacity="0.8"/>
  <rect x="358" y="370" width="58" height="12" rx="4" fill="#8b5cf6" opacity="0.6"/>
  <rect x="444" y="362" width="120" height="28" rx="14" fill="#1e293b" stroke="#22c55e" stroke-width="1" opacity="0.7"/>
  <rect x="462" y="370" width="84" height="12" rx="4" fill="#22c55e" opacity="0.5"/>
  <!-- Glow -->
  <ellipse cx="540" cy="350" rx="300" ry="180" fill="#3b82f6" opacity="0.03"/>
</svg>
