<svg width="1200" height="630" viewBox="0 0 1200 630" xmlns="http://www.w3.org/2000/svg">
  <defs>
    <linearGradient id="bg1" x1="0%" y1="0%" x2="100%" y2="100%">
      <stop offset="0%" style="stop-color:#0c1222;stop-opacity:1" />
      <stop offset="50%" style="stop-color:#1a2332;stop-opacity:1" />
      <stop offset="100%" style="stop-color:#0f172a;stop-opacity:1" />
    </linearGradient>
  </defs>
  <rect width="1200" height="630" fill="url(#bg1)"/>
  <!-- Laptop mockup -->
  <rect x="260" y="140" width="560" height="340" rx="10" fill="#1e293b" stroke="#334155" stroke-width="2"/>
  <rect x="270" y="150" width="540" height="320" rx="4" fill="#0f172a"/>
  <rect x="160" y="480" width="760" height="20" rx="4" fill="#334155"/>
  <rect x="380" y="478" width="320" height="6" rx="3" fill="#1e293b"/>
  <!-- Code editor -->
  <rect x="270" y="150" width="180" height="320" rx="0" fill="#111827" opacity="0.8"/>
  <!-- File tree -->
  <rect x="284" y="168" width="100" height="8" rx="3" fill="#3b82f6" opacity="0.6"/>
  <rect x="294" y="184" width="80" height="7" rx="3" fill="#64748b" opacity="0.5"/>
  <rect x="294" y="198" width="90" height="7" rx="3" fill="#22c55e" opacity="0.4"/>
  <rect x="294" y="212" width="70" height="7" rx="3" fill="#f59e0b" opacity="0.4"/>
  <rect x="304" y="226" width="60" height="7" rx="3" fill="#64748b" opacity="0.4"/>
  <rect x="304" y="240" width="75" height="7" rx="3" fill="#64748b" opacity="0.35"/>
  <rect x="294" y="254" width="85" height="7" rx="3" fill="#ec4899" opacity="0.4"/>
  <!-- Code content -->
  <rect x="462" y="164" width="80" height="9" rx="3" fill="#8b5cf6" opacity="0.7"/>
  <rect x="550" y="164" width="120" height="9" rx="3" fill="#3b82f6" opacity="0.6"/>
  <rect x="462" y="182" width="140" height="8" rx="3" fill="#64748b" opacity="0.4"/>
  <rect x="472" y="198" width="60" height="8" rx="3" fill="#22c55e" opacity="0.6"/>
  <rect x="540" y="198" width="100" height="8" rx="3" fill="#f59e0b" opacity="0.5"/>
  <rect x="648" y="198" width="80" height="8" rx="3" fill="#64748b" opacity="0.4"/>
  <rect x="472" y="214" width="180" height="8" rx="3" fill="#64748b" opacity="0.35"/>
  <rect x="472" y="230" width="100" height="8" rx="3" fill="#3b82f6" opacity="0.5"/>
  <rect x="580" y="230" width="60" height="8" rx="3" fill="#ec4899" opacity="0.5"/>
  <rect x="462" y="246" width="140" height="8" rx="3" fill="#64748b" opacity="0.4"/>
  <rect x="472" y="262" width="80" height="8" rx="3" fill="#22c55e" opacity="0.5"/>
  <rect x="560" y="262" width="120" height="8" rx="3" fill="#64748b" opacity="0.35"/>
  <rect x="472" y="278" width="160" height="8" rx="3" fill="#f59e0b" opacity="0.4"/>
  <rect x="462" y="294" width="110" height="8" rx="3" fill="#8b5cf6" opacity="0.5"/>
  <rect x="472" y="310" width="140" height="8" rx="3" fill="#3b82f6" opacity="0.4"/>
  <rect x="472" y="326" width="90" height="8" rx="3" fill="#ec4899" opacity="0.4"/>
  <rect x="462" y="342" width="160" height="8" rx="3" fill="#64748b" opacity="0.35"/>
  <!-- Terminal at bottom of editor -->
  <rect x="270" y="390" width="540" height="80" fill="#0a0f1a" opacity="0.9"/>
  <rect x="284" y="400" width="8" height="14" rx="2" fill="#22c55e" opacity="0.8"/>
  <rect x="298" y="400" width="120" height="14" rx="3" fill="#22c55e" opacity="0.5"/>
  <rect x="284" y="422" width="60" height="10" rx="3" fill="#64748b" opacity="0.4"/>
  <rect x="350" y="422" width="90" height="10" rx="3" fill="#3b82f6" opacity="0.4"/>
  <!-- Right decorations -->
  <circle cx="960" cy="250" r="100" fill="none" stroke="#3b82f6" stroke-width="1" opacity="0.15"/>
  <circle cx="960" cy="250" r="70" fill="none" stroke="#22c55e" stroke-width="1" opacity="0.12"/>
  <circle cx="960" cy="250" r="40" fill="#3b82f6" opacity="0.06"/>
  <rect x="900" y="370" width="120" height="10" rx="4" fill="#3b82f6" opacity="0.3"/>
  <rect x="900" y="388" width="90" height="8" rx="4" fill="#64748b" opacity="0.2"/>
  <!-- Glow -->
  <ellipse cx="600" cy="315" rx="350" ry="180" fill="#3b82f6" opacity="0.03"/>
</svg>
