<svg width="1200" height="630" viewBox="0 0 1200 630" xmlns="http://www.w3.org/2000/svg">
  <defs>
    <linearGradient id="bg" x1="0%" y1="0%" x2="100%" y2="100%">
      <stop offset="0%" style="stop-color:#0c1222;stop-opacity:1" />
      <stop offset="50%" style="stop-color:#1a2332;stop-opacity:1" />
      <stop offset="100%" style="stop-color:#0f172a;stop-opacity:1" />
    </linearGradient>
    <linearGradient id="accent" x1="0%" y1="0%" x2="100%" y2="0%">
      <stop offset="0%" style="stop-color:#a855f7;stop-opacity:1" />
      <stop offset="100%" style="stop-color:#ec4899;stop-opacity:1" />
    </linearGradient>
  </defs>
  <rect width="1200" height="630" fill="url(#bg)"/>
  <path d="M 600 130 L 720 175 L 720 300 Q 720 420 600 490 Q 480 420 480 300 L 480 175 Z" fill="#0f172a" stroke="url(#accent)" stroke-width="3"/>
  <rect x="558" y="280" width="84" height="70" rx="10" fill="#a855f7" opacity="0.85"/>
  <path d="M 575 280 L 575 255 Q 575 230 600 230 Q 625 230 625 255 L 625 280" fill="none" stroke="#ec4899" stroke-width="8" stroke-linecap="round"/>
  <circle cx="600" cy="308" r="9" fill="#0f172a"/>
  <rect x="596" y="312" width="8" height="20" rx="4" fill="#0f172a"/>
  <path d="M 380 220 L 420 220 M 380 250 L 410 250 M 380 280 L 425 280" stroke="#ef4444" stroke-width="4" stroke-linecap="round" opacity="0.5"/>
  <path d="M 780 220 L 820 220 M 790 250 L 820 250 M 785 280 L 825 280" stroke="#22c55e" stroke-width="4" stroke-linecap="round" opacity="0.5"/>
</svg>